<svg version="1.1" id="Layer_1" xmlns="http://www.w3.org/2000/svg" xmlns:xlink="http://www.w3.org/1999/xlink" x="0px" y="0px"
	 width="100%" viewBox="0 0 330 325" enable-background="new 0 0 330 325" xml:space="preserve">
<path fill="#FDFFFF" opacity="1.000000" stroke="none" 
	d="
M166.000000,326.000000 
	C111.055832,326.000000 56.111664,326.000000 1.000000,326.000000 
	C1.000000,322.227325 1.000000,318.453247 1.000000,314.679169 
	C1.000000,211.450729 0.991280,108.222290 1.102040,4.993969 
	C1.103386,3.738729 -0.951040,0.686575 3.334664,1.384004 
	C3.445972,3.895127 3.029353,6.022099 3.027730,8.149388 
	C2.993547,52.963127 3.006601,97.776901 3.009185,142.590668 
	C3.009578,149.421021 3.201288,156.259399 2.923306,163.078537 
	C2.769201,166.858871 5.302613,168.073349 7.862122,168.819122 
	C10.677978,169.639587 13.907115,169.233841 14.589260,165.608215 
	C15.175308,162.493362 14.981687,159.216690 14.991110,156.011154 
	C15.026373,144.016495 15.002595,132.021683 15.002520,120.026917 
	C15.002319,88.207474 14.637431,56.381622 15.195068,24.571949 
	C15.399147,12.930587 15.004482,13.004694 26.497789,13.002834 
	C106.796059,12.989843 187.094391,12.944726 267.392548,13.040192 
	C282.677551,13.058364 297.963623,13.593183 313.245789,14.013007 
	C320.996460,14.225928 320.995178,14.350265 320.995178,22.325657 
	C320.995148,113.785728 321.000183,205.245804 320.978943,296.705872 
	C320.977722,301.962372 320.862457,307.223572 320.615112,312.473877 
	C320.373047,317.611847 317.827484,319.364563 312.684937,318.434387 
	C310.741486,318.082886 308.724304,318.027252 306.740631,318.026245 
	C263.759399,318.004364 220.778107,317.982056 177.796997,318.056793 
	C174.046265,318.063324 170.296707,318.742188 166.000000,319.162201 
	C166.000000,321.764221 166.000000,323.882111 166.000000,326.000000 
M144.048004,276.500458 
	C144.048004,276.500458 143.987335,276.007874 144.208008,275.554413 
	C144.203354,275.386353 144.198685,275.218323 144.629883,274.349304 
	C144.709122,272.357513 144.856995,270.365723 144.857056,268.373932 
	C144.857697,246.720627 144.923660,225.066605 144.749496,203.414581 
	C144.711472,198.686874 146.357529,196.844559 151.147324,196.919083 
	C160.469101,197.064102 169.818329,197.129318 179.117569,196.577194 
	C189.003220,195.990234 198.657455,193.670120 206.961746,188.044266 
	C219.816818,179.335388 224.264114,165.968002 224.920532,151.365952 
	C225.675079,134.580200 225.610718,117.749962 225.564438,100.939980 
	C225.547592,94.818306 224.895508,88.646660 223.946014,82.589874 
	C221.863846,69.307571 216.013031,58.175766 203.651489,51.723824 
	C194.656906,47.029224 184.735092,45.374794 174.681702,45.215656 
	C158.861816,44.965237 143.031219,45.299881 127.215385,44.938747 
	C122.195000,44.824112 120.769012,46.117107 120.789818,51.252880 
	C120.974678,96.890579 120.868904,142.529465 120.829292,188.167984 
	C120.827415,190.327026 120.559944,192.485672 120.553368,194.644897 
	C120.469826,222.124573 120.411339,249.604324 120.348770,277.084045 
	C120.348389,277.249725 120.315659,277.483002 120.407272,277.570923 
	C121.641083,278.755280 122.836037,280.845856 124.152771,280.928680 
	C129.959198,281.293823 135.802139,281.090973 141.631744,281.067810 
	C143.694214,281.059631 145.517502,280.780365 144.210770,277.445557 
	C144.135864,277.294647 144.060974,277.143768 144.048004,276.500458 
z"/>
<path fill="#0D91B0" opacity="1.000000" stroke="none" 
	d="
M328.000000,326.000000 
	C275.645782,326.000000 223.291550,326.000000 170.468002,325.576904 
	C169.800430,320.852051 173.043243,322.034424 175.257446,322.032166 
	C222.222397,321.984253 269.187408,322.002594 316.152405,321.972565 
	C318.125427,321.971313 320.285980,322.057068 322.009399,321.302979 
	C323.295135,320.740387 324.772736,318.938599 324.864685,317.599396 
	C325.437866,309.249023 325.966156,300.871490 325.914703,292.506653 
	C325.739136,263.959564 325.188660,235.414597 325.051514,206.867523 
	C324.996521,195.419510 325.899841,183.968063 325.898712,172.518234 
	C325.897583,160.979797 325.150909,149.443161 325.028259,137.902573 
	C324.864563,122.499725 324.987823,107.093834 324.987854,91.689247 
	C324.987885,74.202278 324.987396,56.715309 324.988190,39.228340 
	C324.988434,33.486023 324.991913,27.743708 325.355103,21.934307 
	C327.460022,19.950806 328.101105,18.198450 324.987823,16.581642 
	C324.880859,12.152630 324.777405,8.881156 318.928711,8.889942 
	C218.274979,9.041148 117.620972,8.995360 16.967031,9.003821 
	C10.465981,9.004368 9.455719,10.673089 11.993740,17.475021 
	C11.994416,63.933079 12.019039,109.923248 11.928965,155.913193 
	C11.924093,158.400482 13.544778,162.673935 9.280869,162.700012 
	C5.105219,162.725571 7.101629,158.538803 7.095581,156.346786 
	C6.966842,109.690392 6.967527,63.033493 7.057789,16.376913 
	C7.064971,12.664705 7.908181,8.954115 8.393898,4.989499 
	C10.458890,4.989499 11.942411,4.989521 13.425933,4.989496 
	C116.237427,4.987780 219.048920,4.985986 321.860413,4.985443 
	C322.860077,4.985438 324.018616,4.684379 324.821747,5.086099 
	C325.996887,5.673864 327.591217,6.624621 327.820190,7.678517 
	C328.518585,10.892893 328.954437,14.230485 328.956268,17.520424 
	C329.010773,114.999687 329.016022,212.479004 328.957428,309.958252 
	C328.954193,315.305695 328.333374,320.652771 328.000000,326.000000 
z"/>
<path fill="#E3FCFC" opacity="1.000000" stroke="none" 
	d="
M166.333328,326.000000 
	C166.000000,323.882111 166.000000,321.764221 166.000000,319.162201 
	C170.296707,318.742188 174.046265,318.063324 177.796997,318.056793 
	C220.778107,317.982056 263.759399,318.004364 306.740631,318.026245 
	C308.724304,318.027252 310.741486,318.082886 312.684937,318.434387 
	C317.827484,319.364563 320.373047,317.611847 320.615112,312.473877 
	C320.862457,307.223572 320.977722,301.962372 320.978943,296.705872 
	C321.000183,205.245804 320.995148,113.785728 320.995178,22.325657 
	C320.995178,14.350265 320.996460,14.225928 313.245789,14.013007 
	C297.963623,13.593183 282.677551,13.058364 267.392548,13.040192 
	C187.094391,12.944726 106.796059,12.989843 26.497789,13.002834 
	C15.004482,13.004694 15.399147,12.930587 15.195068,24.571949 
	C14.637431,56.381622 15.002319,88.207474 15.002520,120.026917 
	C15.002595,132.021683 15.026373,144.016495 14.991110,156.011154 
	C14.981687,159.216690 15.175308,162.493362 14.589260,165.608215 
	C13.907115,169.233841 10.677978,169.639587 7.862122,168.819122 
	C5.302613,168.073349 2.769201,166.858871 2.923306,163.078537 
	C3.201288,156.259399 3.009578,149.421021 3.009185,142.590668 
	C3.006601,97.776901 2.993547,52.963127 3.027730,8.149388 
	C3.029353,6.022099 3.445972,3.895127 3.834664,1.384004 
	C7.030593,1.000000 10.061187,1.000000 13.323586,1.264930 
	C12.051764,1.956588 10.548138,2.383316 8.630852,2.885298 
	C4.256811,2.755181 5.266124,5.684206 5.264616,7.808092 
	C5.228354,58.900700 5.221753,109.993324 5.228353,161.085953 
	C5.228538,162.519836 5.432259,163.953690 5.550031,165.505600 
	C8.212259,165.505600 10.450443,165.505600 13.189980,165.505600 
	C13.189980,163.208817 13.189976,161.248047 13.189981,159.287262 
	C13.190061,125.170013 13.208253,91.052750 13.181457,56.935520 
	C13.170480,42.960358 13.062297,28.985268 13.073349,14.596542 
	C12.935873,9.373519 16.629517,11.101606 18.798901,11.099911 
	C118.267960,11.022158 217.737091,11.031015 317.206207,11.042208 
	C318.964569,11.042406 320.722931,11.193458 322.553070,11.277411 
	C322.553070,114.389618 322.553070,216.955994 322.553070,320.285278 
	C270.939484,320.285278 219.607697,320.285278 168.000000,320.285278 
	C168.000000,322.694641 168.000000,324.347321 168.000000,326.000000 
	C167.555557,326.000000 167.111099,326.000000 166.333328,326.000000 
z"/>
<path fill="#288EA3" opacity="1.000000" stroke="none" 
	d="
M168.333328,326.000000 
	C168.000000,324.347321 168.000000,322.694641 168.000000,320.285278 
	C219.607697,320.285278 270.939484,320.285278 322.553070,320.285278 
	C322.553070,216.955994 322.553070,114.389618 322.553070,11.277411 
	C320.722931,11.193458 318.964569,11.042406 317.206207,11.042208 
	C217.737091,11.031015 118.267960,11.022158 18.798901,11.099911 
	C16.629517,11.101606 12.935873,9.373519 12.827960,14.762487 
	C12.336200,15.897052 12.164845,16.452070 11.993491,17.007088 
	C9.455719,10.673089 10.465981,9.004368 16.967031,9.003821 
	C117.620972,8.995360 218.274979,9.041148 318.928711,8.889942 
	C324.777405,8.881156 324.880859,12.152630 324.986267,16.997921 
	C324.991028,19.224808 324.992462,20.613100 324.993896,22.001390 
	C324.991913,27.743708 324.988434,33.486023 324.988190,39.228340 
	C324.987396,56.715309 324.987885,74.202278 324.987854,91.689247 
	C324.987823,107.093834 324.864563,122.499725 325.028259,137.902573 
	C325.150909,149.443161 325.897583,160.979797 325.898712,172.518234 
	C325.899841,183.968063 324.996521,195.419510 325.051514,206.867523 
	C325.188660,235.414597 325.739136,263.959564 325.914703,292.506653 
	C325.966156,300.871490 325.437866,309.249023 324.864685,317.599396 
	C324.772736,318.938599 323.295135,320.740387 322.009399,321.302979 
	C320.285980,322.057068 318.125427,321.971313 316.152405,321.972565 
	C269.187408,322.002594 222.222397,321.984253 175.257446,322.032166 
	C173.043243,322.034424 169.800430,320.852051 169.999344,325.576904 
	C169.555557,326.000000 169.111099,326.000000 168.333328,326.000000 
z"/>
<path fill="#318DA1" opacity="1.000000" stroke="none" 
	d="
M11.993740,17.475021 
	C12.164845,16.452070 12.336200,15.897052 12.752945,15.176090 
	C13.062297,28.985268 13.170480,42.960358 13.181457,56.935520 
	C13.208253,91.052750 13.190061,125.170013 13.189981,159.287262 
	C13.189976,161.248047 13.189980,163.208817 13.189980,165.505600 
	C10.450443,165.505600 8.212259,165.505600 5.550031,165.505600 
	C5.432259,163.953690 5.228538,162.519836 5.228353,161.085953 
	C5.221753,109.993324 5.228354,58.900700 5.264616,7.808092 
	C5.266124,5.684206 4.256811,2.755181 9.091242,2.957911 
	C116.976860,2.970180 223.988434,2.985090 331.000000,3.000000 
	C331.000000,3.444444 331.000000,3.888889 330.682343,4.941461 
	C330.247681,7.362757 330.028656,9.175904 330.028290,10.989094 
	C330.007385,115.992729 330.004578,220.996368 330.000000,326.000000 
	C329.555542,326.000000 329.111115,326.000000 328.333313,326.000000 
	C328.333374,320.652771 328.954193,315.305695 328.957428,309.958252 
	C329.016022,212.479004 329.010773,114.999687 328.956268,17.520424 
	C328.954437,14.230485 328.518585,10.892893 327.820190,7.678517 
	C327.591217,6.624621 325.996887,5.673864 324.821747,5.086099 
	C324.018616,4.684379 322.860077,4.985438 321.860413,4.985443 
	C219.048920,4.985986 116.237427,4.987780 13.425933,4.989496 
	C11.942411,4.989521 10.458890,4.989499 8.393898,4.989499 
	C7.908181,8.954115 7.064971,12.664705 7.057789,16.376913 
	C6.967527,63.033493 6.966842,109.690392 7.095581,156.346786 
	C7.101629,158.538803 5.105219,162.725571 9.280869,162.700012 
	C13.544778,162.673935 11.924093,158.400482 11.928965,155.913193 
	C12.019039,109.923248 11.994416,63.933079 11.993740,17.475021 
z"/>
<path fill="#DBFFFF" opacity="1.000000" stroke="none" 
	d="
M331.000000,2.500000 
	C223.988434,2.985090 116.976860,2.970180 9.504900,2.882657 
	C10.548138,2.383316 12.051764,1.956588 13.777697,1.264930 
	C118.166664,1.000000 222.333328,0.995807 326.499969,1.041532 
	C328.000122,1.042190 329.500000,1.666668 331.000000,2.500000 
z"/>
<path fill="#63BED0" opacity="1.000000" stroke="none" 
	d="
M330.500000,326.000000 
	C330.004578,220.996368 330.007385,115.992729 330.028290,10.989094 
	C330.028656,9.175904 330.247681,7.362757 330.682343,5.274795 
	C331.000000,112.000000 331.000000,219.000000 330.500000,326.000000 
z"/>
<path fill="#61CBDD" opacity="1.000000" stroke="none" 
	d="
M144.208572,277.950775 
	C145.517502,280.780365 143.694214,281.059631 141.631744,281.067810 
	C135.802139,281.090973 129.959198,281.293823 124.152771,280.928680 
	C122.836037,280.845856 121.641083,278.755280 120.407272,277.570923 
	C120.315659,277.483002 120.348389,277.249725 120.348770,277.084045 
	C120.411339,249.604324 120.469826,222.124573 120.553368,194.644897 
	C120.559944,192.485672 120.827415,190.327026 120.829292,188.167984 
	C120.868904,142.529465 120.974678,96.890579 120.789818,51.252880 
	C120.769012,46.117107 122.195000,44.824112 127.215385,44.938747 
	C143.031219,45.299881 158.861816,44.965237 174.681702,45.215656 
	C184.735092,45.374794 194.656906,47.029224 203.651489,51.723824 
	C216.013031,58.175766 221.863846,69.307571 223.946014,82.589874 
	C224.895508,88.646660 225.547592,94.818306 225.564438,100.939980 
	C225.610718,117.749962 225.675079,134.580200 224.920532,151.365952 
	C224.264114,165.968002 219.816818,179.335388 206.961746,188.044266 
	C198.657455,193.670120 189.003220,195.990234 179.117569,196.577194 
	C169.818329,197.129318 160.469101,197.064102 151.147324,196.919083 
	C146.357529,196.844559 144.711472,198.686874 144.749496,203.414581 
	C144.923660,225.066605 144.857697,246.720627 144.857056,268.373932 
	C144.856995,270.365723 144.709122,272.357513 144.003876,274.605652 
	C142.934708,273.219330 142.125793,271.580719 142.107559,269.933319 
	C141.985992,258.952362 142.033340,247.969528 142.029327,236.520081 
	C142.367325,222.385956 142.701767,208.719040 143.413208,194.874359 
	C145.577759,194.469574 147.364014,194.059143 149.153091,194.046417 
	C158.378677,193.980728 167.693024,194.805695 176.805466,193.788589 
	C185.359131,192.833832 194.600037,191.603714 201.925735,187.567505 
	C213.301437,181.299911 220.185959,170.643311 221.069061,156.609650 
	C221.740356,153.040298 222.853851,149.864685 222.908051,146.671097 
	C223.115417,134.451721 222.982239,122.226570 222.982941,109.545860 
	C222.648178,102.062874 222.462234,95.025154 221.901855,88.017387 
	C221.605591,84.312401 220.657471,80.659546 220.002625,76.596413 
	C217.953812,72.362526 215.913437,68.511398 213.856766,64.668991 
	C208.528442,54.714237 198.902100,51.035664 188.896057,49.232986 
	C180.582474,47.735226 171.894363,48.158054 163.367859,48.038807 
	C151.567642,47.873772 139.761871,47.908154 127.962563,48.103554 
	C126.340683,48.130417 123.375008,49.538086 123.353989,50.365482 
	C123.213341,55.902092 123.702332,61.454697 123.990829,67.470520 
	C123.992813,86.290031 123.990982,104.641144 123.988007,123.461700 
	C123.985481,132.036026 123.892586,140.142441 124.027641,148.245056 
	C124.081856,151.497665 124.636948,154.741913 124.799911,158.373352 
	C124.088646,167.831329 123.552750,176.906647 122.989761,185.980255 
	C122.703102,190.600281 122.123886,195.217178 122.122101,199.835663 
	C122.120270,204.563324 122.662575,209.291214 122.973534,214.485596 
	C122.988091,225.630936 122.995819,236.309677 122.994133,247.457703 
	C122.979469,256.738068 122.848053,265.552551 123.085823,274.357056 
	C123.128387,275.933228 124.858269,278.879364 125.536331,278.802032 
	C131.752975,278.092834 138.217880,282.224396 144.208572,277.950775 
z"/>
<path fill="#30C6E3" opacity="1.000000" stroke="none" 
	d="
M142.025803,236.987320 
	C142.033340,247.969528 141.985992,258.952362 142.107559,269.933319 
	C142.125793,271.580719 142.934708,273.219330 143.785950,274.956177 
	C144.198685,275.218323 144.203354,275.386353 143.897110,275.849304 
	C143.719498,276.427094 143.852783,276.709991 143.986053,276.992859 
	C144.060974,277.143768 144.135864,277.294647 144.209671,277.698181 
	C138.217880,282.224396 131.752975,278.092834 125.536331,278.802032 
	C124.858269,278.879364 123.128387,275.933228 123.085823,274.357056 
	C122.848053,265.552551 122.979469,256.738068 123.415863,247.459564 
	C124.896393,245.907303 126.626038,244.947708 126.853592,243.711609 
	C127.327759,241.136032 126.952705,238.412628 127.027924,235.752838 
	C127.113716,232.719406 128.772476,232.453552 130.991730,233.782196 
	C131.915466,234.335220 132.617188,235.259064 133.590607,236.174942 
	C134.804520,234.651993 135.823410,233.373734 136.585785,232.417282 
	C138.676453,234.173615 140.351135,235.580475 142.025803,236.987320 
z"/>
<path fill="#61CBDD" opacity="1.000000" stroke="none" 
	d="
M144.017029,276.746643 
	C143.852783,276.709991 143.719498,276.427094 143.786774,276.076050 
	C143.987335,276.007874 144.048004,276.500458 144.017029,276.746643 
z"/>
<path fill="#0D95B9" opacity="1.000000" stroke="none" 
	d="
M325.355072,21.934307 
	C324.992462,20.613100 324.991028,19.224808 324.991119,17.420238 
	C328.101105,18.198450 327.460022,19.950806 325.355072,21.934307 
z"/>
<path fill="#3FCAE6" opacity="1.000000" stroke="none" 
	d="
M122.966698,214.018997 
	C122.662575,209.291214 122.120270,204.563324 122.122101,199.835663 
	C122.123886,195.217178 122.703102,190.600281 122.989761,185.980255 
	C123.552750,176.906647 124.088646,167.831329 125.170441,158.334381 
	C127.108200,155.735687 128.511261,153.559357 130.340881,150.721344 
	C131.550888,153.823090 132.516891,156.299301 133.047241,157.658813 
	C136.681305,157.389206 139.345474,157.191544 142.010986,157.462982 
	C142.012589,161.913300 142.011398,165.894547 142.013351,169.875793 
	C142.017044,177.445801 143.664337,179.161026 151.234467,178.959290 
	C159.736862,178.732697 168.269424,178.671082 176.718124,177.828522 
	C180.574661,177.443924 184.261581,175.358261 188.398254,174.030991 
	C189.845413,173.343201 190.919739,172.668549 192.108307,171.780762 
	C192.423737,171.302307 192.681870,171.115738 193.369934,171.000641 
	C195.165497,169.332184 196.588043,167.671051 198.352539,165.951324 
	C199.129501,164.927277 199.564529,163.961807 200.396332,162.996765 
	C202.982681,162.112228 205.192612,161.273834 207.356155,160.329239 
	C209.535645,159.377701 211.581772,157.962906 213.847137,157.409927 
	C216.136993,156.850998 218.624054,157.100021 221.024734,156.995117 
	C220.185959,170.643311 213.301437,181.299911 201.925735,187.567505 
	C194.600037,191.603714 185.359131,192.833832 176.805466,193.788589 
	C167.693024,194.805695 158.378677,193.980728 149.153091,194.046417 
	C147.364014,194.059143 145.577759,194.469574 143.358810,194.487793 
	C140.738342,187.122101 140.738342,187.122101 137.416809,187.942444 
	C137.982437,190.755035 138.551819,193.586304 139.420609,197.906403 
	C135.199371,195.821640 132.511185,194.494003 129.395905,192.955444 
	C128.510468,195.214905 127.590408,197.125305 127.008667,199.133713 
	C125.578430,204.071457 124.303871,209.054291 122.966698,214.018997 
z"/>
<path fill="#5FD0E5" opacity="1.000000" stroke="none" 
	d="
M123.987015,67.002113 
	C123.702332,61.454697 123.213341,55.902092 123.353989,50.365482 
	C123.375008,49.538086 126.340683,48.130417 127.962563,48.103554 
	C139.761871,47.908154 151.567642,47.873772 163.367859,48.038807 
	C171.894363,48.158054 180.582474,47.735226 188.896057,49.232986 
	C198.902100,51.035664 208.528442,54.714237 213.856766,64.668991 
	C215.913437,68.511398 217.953812,72.362526 219.643402,76.667343 
	C217.497284,79.632767 216.314331,83.290215 212.453568,78.724236 
	C210.555756,76.479774 206.992462,78.295395 207.131714,81.470741 
	C207.278549,84.819633 205.783951,86.216743 202.700592,86.773376 
	C201.281479,84.364944 200.147476,82.176239 199.005951,79.614334 
	C198.401932,77.749222 198.209824,75.803452 197.136292,74.846855 
	C193.250366,71.384209 189.068390,68.253784 185.194565,64.726944 
	C188.367661,62.559093 191.344330,60.662281 194.298523,58.779797 
	C196.725662,62.603073 198.657349,65.645912 200.572083,68.662056 
	C205.595764,66.573227 206.091461,64.625076 202.658371,61.333839 
	C201.473953,60.198341 200.208313,59.025738 199.420181,57.622688 
	C197.443253,54.103321 194.813492,54.713528 191.725021,55.772083 
	C188.831329,56.763878 185.793106,57.381210 182.778976,57.956348 
	C181.014984,58.292946 179.173706,58.224487 177.199280,58.348820 
	C178.780792,61.079117 179.905762,63.021255 180.616699,64.923050 
	C167.470703,63.121975 154.738480,61.275547 141.609970,65.014328 
	C140.462692,66.407166 139.468491,67.714211 139.061218,69.183899 
	C138.555267,71.009621 138.534683,72.969833 138.304459,74.871964 
	C137.730057,74.800621 137.155670,74.729286 136.581268,74.657944 
	C135.717651,69.586632 134.750427,64.507233 139.017471,59.820370 
	C137.452881,59.103889 136.053802,58.810944 135.138550,57.983093 
	C131.430939,54.629551 129.353287,56.721256 127.575546,60.042831 
	C126.344101,62.343719 125.180779,64.681061 123.987015,67.002113 
z"/>
<path fill="#4ED0EA" opacity="1.000000" stroke="none" 
	d="
M123.990829,67.470520 
	C125.180779,64.681061 126.344101,62.343719 127.575546,60.042831 
	C129.353287,56.721256 131.430939,54.629551 135.138550,57.983093 
	C136.053802,58.810944 137.452881,59.103889 139.017471,59.820370 
	C134.750427,64.507233 135.717651,69.586632 136.581268,74.657944 
	C137.155670,74.729286 137.730057,74.800621 138.304459,74.871964 
	C138.534683,72.969833 138.555267,71.009621 139.061218,69.183899 
	C139.468491,67.714211 140.462692,66.407166 141.603485,65.482918 
	C142.008224,82.291306 142.005936,98.644737 141.666290,114.950096 
	C137.871323,112.779434 134.413727,110.656853 129.910233,107.892212 
	C129.478424,111.201324 129.292160,113.053619 128.985565,114.885765 
	C128.422226,118.252151 128.128723,121.817207 123.989143,122.992256 
	C123.990982,104.641144 123.992813,86.290031 123.990829,67.470520 
M127.004478,70.563057 
	C127.096443,72.593460 127.188408,74.623871 127.280373,76.654274 
	C127.823952,76.846184 128.367538,77.038094 128.911118,77.230003 
	C129.765182,75.817581 131.365356,74.378036 131.315216,72.998482 
	C131.216309,70.277550 130.202728,67.589851 129.332245,63.888363 
	C127.803169,65.554718 127.267242,65.867928 127.208969,66.253357 
	C127.038696,67.379684 127.058975,68.534821 127.004478,70.563057 
z"/>
<path fill="#4BCFE9" opacity="1.000000" stroke="none" 
	d="
M202.985687,86.993103 
	C205.783951,86.216743 207.278549,84.819633 207.131714,81.470741 
	C206.992462,78.295395 210.555756,76.479774 212.453568,78.724236 
	C216.314331,83.290215 217.497284,79.632767 219.644409,77.054092 
	C220.657471,80.659546 221.605591,84.312401 221.901855,88.017387 
	C222.462234,95.025154 222.648178,102.062874 222.606644,109.550735 
	C218.839706,110.132233 219.895554,112.193451 219.742798,114.433167 
	C219.485397,118.207542 218.450928,122.070663 216.861069,125.485756 
	C216.564117,126.123619 212.128326,124.834671 209.602570,124.434929 
	C209.167343,124.031189 208.732117,123.627441 208.296890,123.223701 
	C207.531265,125.948196 206.704117,128.657394 206.021530,131.402542 
	C205.563782,133.243454 205.310974,135.135300 204.675476,136.706268 
	C203.918243,119.936493 203.451965,103.464798 202.985687,86.993103 
z"/>
<path fill="#37C8E7" opacity="1.000000" stroke="none" 
	d="
M122.973534,214.485596 
	C124.303871,209.054291 125.578430,204.071457 127.008667,199.133713 
	C127.590408,197.125305 128.510468,195.214905 129.395905,192.955444 
	C132.511185,194.494003 135.199371,195.821640 139.420609,197.906403 
	C138.551819,193.586304 137.982437,190.755035 137.416809,187.942444 
	C140.738342,187.122101 140.738342,187.122101 142.981812,194.665573 
	C142.701767,208.719040 142.367325,222.385956 142.029327,236.520081 
	C140.351135,235.580475 138.676453,234.173615 136.585785,232.417282 
	C135.823410,233.373734 134.804520,234.651993 133.590607,236.174942 
	C132.617188,235.259064 131.915466,234.335220 130.991730,233.782196 
	C128.772476,232.453552 127.113716,232.719406 127.027924,235.752838 
	C126.952705,238.412628 127.327759,241.136032 126.853592,243.711609 
	C126.626038,244.947708 124.896393,245.907303 123.425278,246.990265 
	C122.995819,236.309677 122.988091,225.630936 122.973534,214.485596 
z"/>
<path fill="#47CEE8" opacity="1.000000" stroke="none" 
	d="
M123.988007,123.461700 
	C128.128723,121.817207 128.422226,118.252151 128.985565,114.885765 
	C129.292160,113.053619 129.478424,111.201324 129.910233,107.892212 
	C134.413727,110.656853 137.871323,112.779434 141.667480,115.418961 
	C142.007233,129.621902 142.008438,143.307892 142.009644,156.993896 
	C139.345474,157.191544 136.681305,157.389206 133.047241,157.658813 
	C132.516891,156.299301 131.550888,153.823090 130.340881,150.721344 
	C128.511261,153.559357 127.108200,155.735687 125.334610,157.950989 
	C124.636948,154.741913 124.081856,151.497665 124.027641,148.245056 
	C123.892586,140.142441 123.985481,132.036026 123.988007,123.461700 
z"/>
<path fill="#45CEE9" opacity="1.000000" stroke="none" 
	d="
M204.966461,137.004364 
	C205.310974,135.135300 205.563782,133.243454 206.021530,131.402542 
	C206.704117,128.657394 207.531265,125.948196 208.296890,123.223701 
	C208.732117,123.627441 209.167343,124.031189 209.602570,124.434929 
	C212.128326,124.834671 216.564117,126.123619 216.861069,125.485756 
	C218.450928,122.070663 219.485397,118.207542 219.742798,114.433167 
	C219.895554,112.193451 218.839706,110.132233 222.599884,110.008453 
	C222.982239,122.226570 223.115417,134.451721 222.908051,146.671097 
	C222.853851,149.864685 221.740356,153.040298 221.069061,156.609650 
	C218.624054,157.100021 216.136993,156.850998 213.847137,157.409927 
	C211.581772,157.962906 209.535645,159.377701 207.356155,160.329239 
	C205.192612,161.273834 202.982681,162.112228 200.393402,162.739807 
	C199.993774,162.311066 199.993835,162.139709 200.279175,161.713058 
	C202.036835,154.635880 203.509201,147.814026 205.282928,140.957184 
	C205.906754,140.514389 206.229202,140.106567 206.551651,139.698730 
	C206.028519,139.468170 205.505386,139.237625 204.980133,138.673279 
	C204.974167,137.894440 204.970306,137.449402 204.966461,137.004364 
z"/>
<path fill="#61CBDD" opacity="1.000000" stroke="none" 
	d="
M142.010986,157.462982 
	C142.008438,143.307892 142.007233,129.621902 142.004852,115.467033 
	C142.005936,98.644737 142.008224,82.291306 142.016998,65.469284 
	C154.738480,61.275547 167.470703,63.121975 181.012573,64.931953 
	C182.881042,64.986794 183.939590,64.992386 184.998154,64.997978 
	C189.068390,68.253784 193.250366,71.384209 197.136292,74.846855 
	C198.209824,75.803452 198.401932,77.749222 198.893951,79.718460 
	C198.789459,80.195770 198.565918,80.403931 198.288193,80.228119 
	C192.569901,69.769745 183.550446,65.918678 172.442551,65.852188 
	C164.781097,65.806328 157.113998,65.958160 149.460175,65.701141 
	C145.612274,65.571938 144.684082,67.133713 144.708511,70.695671 
	C144.842117,90.182755 144.777451,109.671173 144.788071,129.159134 
	C144.795792,143.317062 144.837662,157.475037 144.807220,171.632874 
	C144.801727,174.191910 144.891235,176.276306 148.391998,176.126938 
	C161.604889,175.563217 175.051178,177.910980 187.937500,172.915878 
	C187.980606,172.966995 188.069138,173.067261 188.048218,173.311035 
	C188.027313,173.554794 188.025421,174.044113 188.025421,174.044113 
	C184.261581,175.358261 180.574661,177.443924 176.718124,177.828522 
	C168.269424,178.671082 159.736862,178.732697 151.234467,178.959290 
	C143.664337,179.161026 142.017044,177.445801 142.013351,169.875793 
	C142.011398,165.894547 142.012589,161.913300 142.010986,157.462982 
z"/>
<path fill="#5CC9DB" opacity="1.000000" stroke="none" 
	d="
M198.010605,166.009903 
	C196.588043,167.671051 195.165497,169.332184 193.296982,170.676407 
	C192.786880,170.147491 192.722733,169.935516 192.716034,169.744659 
	C192.773468,169.765778 192.828735,169.870972 193.087738,169.798645 
	C193.520660,169.426468 193.694565,169.126633 193.905884,168.888077 
	C193.943314,168.949356 193.824905,168.868103 194.084564,168.796738 
	C194.513657,168.423508 194.683090,168.121643 194.853302,167.870636 
	C194.854065,167.921494 194.770309,167.863754 195.069733,167.755768 
	C195.555557,167.067902 195.741959,166.488007 195.934509,165.956482 
	C195.940643,166.004837 195.889191,165.921997 196.237167,165.947784 
	C197.049362,165.974991 197.513596,165.976395 197.985687,165.985687 
	C197.993561,165.993561 198.010605,166.009903 198.010605,166.009903 
z"/>
<path fill="#5CC9DB" opacity="1.000000" stroke="none" 
	d="
M199.993881,161.968369 
	C199.993835,162.139709 199.993774,162.311066 199.996643,162.739380 
	C199.564529,163.961807 199.129501,164.927277 198.352539,165.951324 
	C198.010605,166.009903 197.993561,165.993561 197.992828,165.587250 
	C197.991425,164.115982 197.990738,163.051041 198.016602,161.763016 
	C198.138824,161.243027 198.317322,161.009460 198.865891,160.958023 
	C199.433380,161.374023 199.713623,161.671188 199.993881,161.968369 
z"/>
<path fill="#61CBDD" opacity="1.000000" stroke="none" 
	d="
M192.658600,169.723541 
	C192.722733,169.935516 192.786880,170.147491 192.923981,170.683716 
	C192.681870,171.115738 192.423737,171.302307 191.767578,171.813492 
	C190.231461,172.395309 189.150299,172.731293 188.069138,173.067261 
	C188.069138,173.067261 187.980606,172.966995 188.122559,172.647324 
	C189.729202,171.459610 191.193909,170.591568 192.658600,169.723541 
z"/>
<path fill="#5CC9DB" opacity="1.000000" stroke="none" 
	d="
M188.048218,173.311035 
	C189.150299,172.731293 190.231461,172.395309 191.653351,172.026611 
	C190.919739,172.668549 189.845413,173.343201 188.398254,174.030991 
	C188.025421,174.044113 188.027313,173.554794 188.048218,173.311035 
z"/>
<path fill="#61CBDD" opacity="1.000000" stroke="none" 
	d="
M200.279175,161.713058 
	C199.713623,161.671188 199.433380,161.374023 198.939117,160.556610 
	C199.168579,158.103317 199.889938,156.187820 200.013306,154.234558 
	C201.569901,129.587387 203.221832,104.931114 198.565918,80.403931 
	C198.565918,80.403931 198.789459,80.195770 198.901459,80.091644 
	C200.147476,82.176239 201.281479,84.364944 202.700592,86.773376 
	C203.451965,103.464798 203.918243,119.936493 204.675476,136.706268 
	C204.970306,137.449402 204.974167,137.894440 204.979675,139.004089 
	C204.981415,140.109848 204.981491,140.551010 204.981583,140.992157 
	C203.509201,147.814026 202.036835,154.635880 200.279175,161.713058 
z"/>
<path fill="#51D4E9" opacity="1.000000" stroke="none" 
	d="
M185.194565,64.726944 
	C183.939590,64.992386 182.881042,64.986794 181.426605,64.972298 
	C179.905762,63.021255 178.780792,61.079117 177.199280,58.348820 
	C179.173706,58.224487 181.014984,58.292946 182.778976,57.956348 
	C185.793106,57.381210 188.831329,56.763878 191.725021,55.772083 
	C194.813492,54.713528 197.443253,54.103321 199.420181,57.622688 
	C200.208313,59.025738 201.473953,60.198341 202.658371,61.333839 
	C206.091461,64.625076 205.595764,66.573227 200.572083,68.662056 
	C198.657349,65.645912 196.725662,62.603073 194.298523,58.779797 
	C191.344330,60.662281 188.367661,62.559093 185.194565,64.726944 
z"/>
<path fill="#5FD0E5" opacity="1.000000" stroke="none" 
	d="
M127.004524,70.120865 
	C127.058975,68.534821 127.038696,67.379684 127.208969,66.253357 
	C127.267242,65.867928 127.803169,65.554718 129.332245,63.888363 
	C130.202728,67.589851 131.216309,70.277550 131.315216,72.998482 
	C131.365356,74.378036 129.765182,75.817581 128.911118,77.230003 
	C128.367538,77.038094 127.823952,76.846184 127.280373,76.654274 
	C127.188408,74.623871 127.096443,72.593460 127.004524,70.120865 
z"/>
<path fill="#4BCFE9" opacity="1.000000" stroke="none" 
	d="
M205.282928,140.957184 
	C204.981491,140.551010 204.981415,140.109848 204.981781,139.337891 
	C205.505386,139.237625 206.028519,139.468170 206.551651,139.698730 
	C206.229202,140.106567 205.906754,140.514389 205.282928,140.957184 
z"/>
<path fill="#F9FEFE" opacity="1.000000" stroke="none" 
	d="
M198.288193,80.228119 
	C203.221832,104.931114 201.569901,129.587387 200.013306,154.234558 
	C199.889938,156.187820 199.168579,158.103317 198.651886,160.437775 
	C198.317322,161.009460 198.138824,161.243027 197.769501,161.973541 
	C196.960281,163.578766 196.424728,164.750381 195.889191,165.921997 
	C195.889191,165.921997 195.940643,166.004837 195.652008,166.087524 
	C195.165680,166.734726 194.967987,167.299240 194.770309,167.863754 
	C194.770309,167.863754 194.854065,167.921494 194.585297,167.927185 
	C194.152634,168.244598 193.988770,168.556351 193.824905,168.868103 
	C193.824905,168.868103 193.943314,168.949356 193.640167,168.950623 
	C193.167587,169.258255 192.998154,169.564621 192.828735,169.870972 
	C192.828735,169.870972 192.773468,169.765778 192.716034,169.744659 
	C191.193909,170.591568 189.729202,171.459610 188.079453,172.596207 
	C175.051178,177.910980 161.604889,175.563217 148.391998,176.126938 
	C144.891235,176.276306 144.801727,174.191910 144.807220,171.632874 
	C144.837662,157.475037 144.795792,143.317062 144.788071,129.159134 
	C144.777451,109.671173 144.842117,90.182755 144.708511,70.695671 
	C144.684082,67.133713 145.612274,65.571938 149.460175,65.701141 
	C157.113998,65.958160 164.781097,65.806328 172.442551,65.852188 
	C183.550446,65.918678 192.569901,69.769745 198.288193,80.228119 
z"/>
<path fill="#61CBDD" opacity="1.000000" stroke="none" 
	d="
M196.237167,165.947784 
	C196.424728,164.750381 196.960281,163.578766 197.742935,162.196625 
	C197.990738,163.051041 197.991425,164.115982 197.984955,165.579376 
	C197.513596,165.976395 197.049362,165.974991 196.237167,165.947784 
z"/>
<path fill="#61CBDD" opacity="1.000000" stroke="none" 
	d="
M195.069733,167.755768 
	C194.967987,167.299240 195.165680,166.734726 195.645859,166.039154 
	C195.741959,166.488007 195.555557,167.067902 195.069733,167.755768 
z"/>
<path fill="#61CBDD" opacity="1.000000" stroke="none" 
	d="
M194.084564,168.796738 
	C193.988770,168.556351 194.152634,168.244598 194.584534,167.876312 
	C194.683090,168.121643 194.513657,168.423508 194.084564,168.796738 
z"/>
<path fill="#61CBDD" opacity="1.000000" stroke="none" 
	d="
M193.087738,169.798645 
	C192.998154,169.564621 193.167587,169.258255 193.602737,168.889343 
	C193.694565,169.126633 193.520660,169.426468 193.087738,169.798645 
z"/>
</svg>